<svg xmlns="http://www.w3.org/2000/svg" viewBox="0 0 64 64" width="64" height="64">
  <rect width="64" height="64" rx="16" fill="#6366F1"/>
  <path fill="#FFFFFF" d="M20 18h24a6 6 0 0 1 6 6v14a6 6 0 0 1-6 6H30l-9 7a1.5 1.5 0 0 1-2.4-1.2V44a6 6 0 0 1-4-5.6V24a6 6 0 0 1 6-6Z" opacity="0.18"/>
  <path fill="none" stroke="#FFFFFF" stroke-width="3.5" stroke-linejoin="round" stroke-linecap="round" d="M20 20h24a4 4 0 0 1 4 4v13a4 4 0 0 1-4 4H31l-8 6v-6h-3a4 4 0 0 1-4-4V24a4 4 0 0 1 4-4Z"/>
  <circle cx="26" cy="30.5" r="2.4" fill="#FFFFFF"/>
  <circle cx="34" cy="30.5" r="2.4" fill="#FFFFFF"/>
  <circle cx="42" cy="30.5" r="2.4" fill="#FFFFFF"/>
</svg>
